HIERARCHY
ROOT Hips
{
	OFFSET 0.000000 0.000000 0.000000
	CHANNELS 6 Xposition Yposition Zposition Zrotation Yrotation Xrotation 
	JOINT LowerBack
	{
		OFFSET 0.000000 0.000000 0.000000
		CHANNELS 3 Zrotation Yrotation Xrotation
		JOINT Spine
		{
			OFFSET 0.028270 2.035590 -0.193380
			CHANNELS 3 Zrotation Yrotation Xrotation
			JOINT Spine1
			{
				OFFSET 0.056720 2.048850 -0.042750
				CHANNELS 3 Zrotation Yrotation Xrotation
				JOINT Neck
				{
					OFFSET 0.000000 0.000000 0.000000
					CHANNELS 3 Zrotation Yrotation Xrotation
					JOINT Neck1
					{
						OFFSET -0.054170 1.746240 0.172020
						CHANNELS 3 Zrotation Yrotation Xrotation
						JOINT Head
						{
							OFFSET 0.104070 1.761360 -0.123970
							CHANNELS 3 Zrotation Yrotation Xrotation
							End Site
							{
								OFFSET 0.000000 0.000000 0.000000
							}
						}
					}
				}
				JOINT LeftShoulder
				{
					OFFSET 0.000000 0.000000 0.000000
					CHANNELS 3 Zrotation Yrotation Xrotation
					JOINT LeftArm
					{
						OFFSET 3.362410 1.200890 -0.311210
						CHANNELS 3 Zrotation Yrotation Xrotation
						JOINT LeftForeArm
						{
							OFFSET 4.983000 -0.000000 -0.000000
							CHANNELS 3 Zrotation Yrotation Xrotation
							JOINT LeftHand
							{
								OFFSET 3.483560 -0.000000 -0.000000
								CHANNELS 3 Zrotation Yrotation Xrotation
								JOINT LeftFingerBase
								{
									OFFSET 0.000000 0.000000 0.000000
									CHANNELS 3 Zrotation Yrotation Xrotation
									JOINT LeftHandIndex1
									{
										OFFSET 0.715260 -0.000000 -0.000000
										CHANNELS 3 Zrotation Yrotation Xrotation
										End Site
										{
											OFFSET 0.000000 0.000000 0.000000
										}
									}
								}
								JOINT LThumb
								{
									OFFSET 0.000000 0.000000 0.000000
									CHANNELS 3 Zrotation Yrotation Xrotation
									End Site
									{
										OFFSET 0.000000 0.000000 0.000000
									}
								}
							}
						}
					}
				}
				JOINT RightShoulder
				{
					OFFSET 0.000000 0.000000 0.000000
					CHANNELS 3 Zrotation Yrotation Xrotation
					JOINT RightArm
					{
						OFFSET -3.136600 1.374050 -0.404650
						CHANNELS 3 Zrotation Yrotation Xrotation
						JOINT RightForeArm
						{
							OFFSET -5.241900 -0.000000 -0.000000
							CHANNELS 3 Zrotation Yrotation Xrotation
							JOINT RightHand
							{
								OFFSET -3.444170 -0.000000 -0.000000
								CHANNELS 3 Zrotation Yrotation Xrotation
								JOINT RightFingerBase
								{
									OFFSET 0.000000 0.000000 0.000000
									CHANNELS 3 Zrotation Yrotation Xrotation
									JOINT RightHandIndex1
									{
										OFFSET -0.622530 -0.000000 -0.000000
										CHANNELS 3 Zrotation Yrotation Xrotation
										End Site
										{
											OFFSET 0.000000 0.000000 0.000000
										}
									}
								}
								JOINT RThumb
								{
									OFFSET 0.000000 0.000000 0.000000
									CHANNELS 3 Zrotation Yrotation Xrotation
									End Site
									{
										OFFSET 0.000000 0.000000 0.000000
									}
								}
							}
						}
					}
				}
			}
		}
	}
}
}
MOTION
Frames: 18
Frame Time: 0.008333
6.181183 16.514083 2.559265 93.693867 -87.873594 -67.289953 1.238877 -4.202186 -1.553598 -0.538259 -4.408388 -3.211652 -7.525397 -4.487091 0.456860 11.784673 -11.299143 -10.717321 -3.901062 -0.253448 -1.019485 0.000000 0.000000 0.000000 0.784271 3.049212 2.321765 -59.021206 -4.172317 9.988988 -1.453031 -66.127441 -0.022288 3.868557 6.137170 0.209605 -0.127081 0.168411 0.000000 0.000000 0.000000 0.000000 0.000000 0.000000 0.000000 20.036213 -9.465716 2.823506 68.356546 -6.690605 -1.800173 3.374341 27.323747 0.012644 2.468328 5.491482 0.116887 0.082057 -0.089153 0.000000 0.000000 0.000000 0.000000 0.000000 0.000000 0.000000 
6.040742 16.486345 2.549105 90.216033 -88.363278 -62.945412 1.899394 -4.067719 -1.625352 -0.391803 -4.315560 -3.246419 -7.459542 -4.400422 0.447129 11.594903 -11.276243 -10.843355 -3.842787 -0.247238 -1.062691 0.000000 0.000000 0.000000 0.547466 3.265429 2.362760 -59.594520 -3.533084 10.311122 -1.471762 -65.741953 -0.021925 3.815948 6.174379 0.208280 -0.126379 0.164325 0.000000 0.000000 0.000000 0.000000 0.000000 0.000000 0.000000 19.606328 -9.332280 2.892354 68.590281 -6.824798 -1.402281 3.383809 27.644943 0.012777 2.636204 5.347002 0.121890 0.081824 -0.091226 0.000000 0.000000 0.000000 0.000000 0.000000 0.000000 0.000000 
5.903002 16.454298 2.539793 85.447071 -88.880259 -57.270794 2.561784 -3.918509 -1.681973 -0.244073 -4.207212 -3.278391 -7.392071 -4.298597 0.432663 11.422032 -11.265161 -10.984526 -3.780981 -0.240462 -1.112023 0.000000 0.000000 0.000000 0.350225 3.488166 2.405034 -60.205019 -2.872822 10.632083 -1.486399 -65.356205 -0.021494 3.739257 6.238718 0.206449 -0.125061 0.160174 0.000000 0.000000 0.000000 0.000000 0.000000 0.000000 0.000000 19.184905 -9.195467 2.967691 68.790748 -6.946409 -0.890286 3.390629 28.056123 0.012916 2.823837 5.181068 0.126893 0.081444 -0.093354 0.000000 0.000000 0.000000 0.000000 0.000000 0.000000 0.000000 
5.768380 16.417621 2.530405 78.059232 -89.429591 -48.943292 3.203282 -3.748897 -1.716476 -0.100168 -4.075955 -3.307850 -7.328011 -4.174783 0.403126 11.276557 -11.243506 -11.132157 -3.719707 -0.233526 -1.165333 0.000000 0.000000 0.000000 0.203720 3.693195 2.451247 -60.838371 -2.148783 10.935009 -1.494010 -65.009672 -0.020977 3.634709 6.334611 0.204012 -0.122899 0.155880 0.000000 0.000000 0.000000 0.000000 0.000000 0.000000 0.000000 18.794025 -9.027643 3.051331 68.959339 -7.094333 -0.304596 3.392209 28.594558 0.013081 3.041728 4.998644 0.132298 0.080722 -0.095671 0.000000 0.000000 0.000000 0.000000 0.000000 0.000000 0.000000 
5.636904 16.375940 2.520257 -115.156643 -89.933039 145.252196 3.792812 -3.532291 -1.728812 0.031602 -3.893317 -3.334432 -7.270701 -4.000765 0.355151 11.166542 -11.213815 -11.287369 -3.659475 -0.226420 -1.222987 0.000000 0.000000 0.000000 0.107794 3.890812 2.500124 -61.477594 -1.346025 11.217450 -1.492451 -64.726657 -0.020345 3.504274 6.463016 0.200968 -0.119723 0.151301 0.000000 0.000000 0.000000 0.000000 0.000000 0.000000 0.000000 18.444019 -8.818934 3.144570 69.093401 -7.267498 0.348025 3.388306 29.269808 0.013314 3.285933 4.812697 0.138105 0.079716 -0.098413 0.000000 0.000000 0.000000 0.000000 0.000000 0.000000 0.000000 
5.508320 16.328840 2.508974 -139.609081 -89.098402 170.741333 4.081449 -3.226218 -1.722779 0.077651 -3.602321 -3.356239 -7.212558 -3.716205 0.298616 11.097274 -11.227532 -11.470624 -3.594814 -0.218366 -1.290755 0.000000 0.000000 0.000000 0.059162 4.154085 2.544523 -62.092511 -0.501026 11.503927 -1.481315 -64.503070 -0.019609 3.357687 6.619871 0.197516 -0.115597 0.146077 0.000000 0.000000 0.000000 0.000000 0.000000 0.000000 0.000000 18.136250 -8.603050 3.247008 69.189675 -7.388311 1.136082 3.381345 30.040827 0.013673 3.523765 4.653127 0.143617 0.078845 -0.101978 0.000000 0.000000 0.000000 0.000000 0.000000 0.000000 0.000000 
5.382780 16.276312 2.495927 -170.030104 -88.639263 -157.750845 3.670500 -3.085091 -1.746480 -0.074877 -3.435817 -3.392150 -7.125995 -3.545783 0.237734 11.050887 -11.244504 -11.660706 -3.536741 -0.210737 -1.362567 0.000000 0.000000 0.000000 0.076125 4.324947 2.606241 -62.648152 0.409853 11.791913 -1.468586 -64.354722 -0.018978 3.200076 6.802154 0.193762 -0.112104 0.140880 0.000000 0.000000 0.000000 0.000000 0.000000 0.000000 0.000000 17.908558 -8.451465 3.344277 69.283185 -7.553741 1.954945 3.358735 30.946822 0.014054 3.771590 4.521762 0.149929 0.076870 -0.105839 0.000000 0.000000 0.000000 0.000000 0.000000 0.000000 0.000000 
5.259949 16.218126 2.480888 170.558169 -89.025232 -137.209042 3.587452 -3.179350 -1.803551 -0.119752 -3.524978 -3.432871 -7.043890 -3.633721 0.190701 11.037507 -11.286223 -11.861199 -3.481571 -0.203270 -1.439376 0.000000 0.000000 0.000000 0.123782 4.328896 2.691861 -63.192566 1.338867 12.105496 -1.458521 -64.256093 -0.018556 3.044605 7.001822 0.190222 -0.109584 0.137063 0.000000 0.000000 0.000000 0.000000 0.000000 0.000000 0.000000 17.731766 -8.434423 3.427590 69.329847 -7.753993 2.803223 3.318957 31.971501 0.014419 4.010546 4.437187 0.156938 0.074031 -0.109312 0.000000 0.000000 0.000000 0.000000 0.000000 0.000000 0.000000 
5.139409 16.154280 2.463702 162.813886 -89.389573 -128.284128 3.762334 -3.208629 -1.855591 -0.085815 -3.564171 -3.470013 -6.985604 -3.677516 0.131268 11.067886 -11.344787 -12.074048 -3.424748 -0.195278 -1.521909 0.000000 0.000000 0.000000 0.186036 4.328757 2.778139 -63.711342 2.330707 12.417096 -1.440147 -64.221125 -0.018101 2.905439 7.205643 0.187081 -0.106355 0.133400 0.000000 0.000000 0.000000 0.000000 0.000000 0.000000 0.000000 17.587538 -8.404614 3.517158 69.336172 -7.953258 3.653303 3.273426 33.092452 0.014940 4.232779 4.405519 0.164849 0.071381 -0.113678 0.000000 0.000000 0.000000 0.000000 0.000000 0.000000 0.000000 
5.020942 16.084763 2.444298 161.455830 -89.590051 -125.697650 3.891051 -3.189416 -1.908633 -0.060010 -3.552416 -3.505801 -6.935983 -3.671800 0.064730 11.134494 -11.437469 -12.303060 -3.364302 -0.186511 -1.611187 0.000000 0.000000 0.000000 0.263235 4.343675 2.863145 -64.184845 3.364038 12.737362 -1.416053 -64.229211 -0.017656 2.795139 7.398492 0.184940 -0.102859 0.129764 0.000000 0.000000 0.000000 0.000000 0.000000 0.000000 0.000000 17.474930 -8.387499 3.610639 69.318612 -8.126316 4.510944 3.221510 34.275254 0.015605 4.413188 4.439153 0.173565 0.069023 -0.119140 0.000000 0.000000 0.000000 0.000000 0.000000 0.000000 0.000000 
4.904084 16.009723 2.422725 163.521562 -89.680248 -126.493775 3.941033 -3.151840 -1.966829 -0.051925 -3.518208 -3.542609 -6.891965 -3.644237 -0.010271 11.229173 -11.547802 -12.539106 -3.302586 -0.177304 -1.704517 0.000000 0.000000 0.000000 0.350355 4.349980 2.949724 -64.611013 4.442398 13.061423 -1.388414 -64.266720 -0.017247 2.720826 7.565772 0.184198 -0.099372 0.126357 0.000000 0.000000 0.000000 0.000000 0.000000 0.000000 0.000000 17.393762 -8.381018 3.705117 69.289917 -8.304262 5.322882 3.161208 35.520207 0.016369 4.548360 4.529558 0.182883 0.066840 -0.125631 0.000000 0.000000 0.000000 0.000000 0.000000 0.000000 0.000000 
4.788263 15.929227 2.399067 167.552754 -89.709080 -129.220734 3.934486 -3.106955 -2.030495 -0.055736 -3.473922 -3.579923 -6.852609 -3.607051 -0.089805 11.346551 -11.680654 -12.781170 -3.239013 -0.167623 -1.801486 0.000000 0.000000 0.000000 0.440769 4.348816 3.037209 -64.993384 5.547812 13.392269 -1.359296 -64.309673 -0.016888 2.687124 7.693076 0.184959 -0.096070 0.123369 -0.000000 0.000000 0.000000 0.000000 0.000000 0.000000 0.000000 17.338079 -8.398083 3.797897 69.252966 -8.484614 6.083541 3.092312 36.809585 0.017179 4.620653 4.672918 0.191904 0.064990 -0.133066 0.000000 0.000000 0.000000 0.000000 0.000000 0.000000 0.000000 
4.673018 15.843440 2.373569 172.723662 -89.719890 -133.061303 3.901002 -3.060635 -2.099100 -0.063998 -3.427094 -3.617496 -6.818137 -3.567787 -0.172118 11.481344 -11.834671 -13.026179 -3.173956 -0.157556 -1.901016 0.000000 0.000000 0.000000 0.527599 4.340416 3.125005 -65.337881 6.668682 13.728449 -1.330159 -64.340093 -0.016574 2.692779 7.769447 0.187023 -0.093006 0.120946 -0.000000 0.000000 0.000000 0.000000 0.000000 0.000000 0.000000 17.303936 -8.441999 3.886775 69.209042 -8.674439 6.783813 3.014748 38.135196 0.017969 4.618692 4.857967 0.199627 0.063593 -0.141315 0.000000 0.000000 0.000000 0.000000 0.000000 0.000000 0.000000 
4.557803 15.752406 2.346562 178.499892 -89.751553 -137.487788 3.865117 -3.018910 -2.173471 -0.070731 -3.385124 -3.655349 -6.788664 -3.533774 -0.255244 11.628745 -12.008548 -13.271512 -3.108085 -0.147223 -2.002094 0.000000 0.000000 0.000000 0.605068 4.326593 3.212689 -65.650754 7.792567 14.067571 -1.302304 -64.342982 -0.016283 2.730988 7.789075 0.189890 -0.090182 0.119180 -0.000000 0.000000 0.000000 0.000000 0.000000 0.000000 0.000000 17.289310 -8.515681 3.969433 69.156759 -8.882056 7.420917 2.928580 39.493167 0.018665 4.534772 5.070278 0.204650 0.062741 -0.150201 0.000000 0.000000 0.000000 0.000000 0.000000 0.000000 0.000000 
4.442247 15.656233 2.318465 -175.511014 -89.833948 -142.114690 3.840152 -2.988394 -2.255490 -0.072917 -3.355389 -3.693813 -6.763935 -3.512204 -0.337285 11.784248 -12.200585 -13.514805 -3.042464 -0.136789 -2.103691 0.000000 0.000000 0.000000 0.667519 4.309898 3.299983 -65.938077 8.908646 14.406836 -1.276713 -64.309168 -0.015999 2.790100 7.753261 0.192760 -0.087546 0.118070 -0.000000 0.000000 0.000000 0.000000 0.000000 0.000000 0.000000 17.294226 -8.621237 4.043538 69.091960 -9.116097 7.997869 2.834169 40.883656 0.019196 4.366848 5.293567 0.205775 0.062482 -0.159512 0.000000 0.000000 0.000000 0.000000 0.000000 0.000000 0.000000 
4.325774 15.554807 2.289829 -169.597000 -89.983093 -146.655060 3.826474 -2.974026 -2.349136 -0.070921 -3.342998 -3.733700 -6.743318 -3.507959 -0.416350 11.944293 -12.408707 -13.754278 -2.978328 -0.126430 -2.204940 0.000000 0.000000 0.000000 0.709020 4.294798 3.386726 -66.204226 10.007141 14.742330 -1.254064 -64.234145 -0.015695 2.854808 7.670212 0.194733 -0.085008 0.117526 -0.000000 0.000000 0.000000 0.000000 0.000000 0.000000 0.000000 17.320712 -8.759157 4.107225 69.007821 -9.383954 8.521430 2.732295 42.308408 0.019504 4.119527 5.512035 0.202097 0.062816 -0.169047 0.000000 0.000000 0.000000 0.000000 0.000000 0.000000 0.000000 
4.208104 15.448146 2.261222 16.020759 -89.801357 29.109092 3.816266 -2.977069 -2.458820 -0.067787 -3.349089 -3.777390 -6.727546 -3.522107 -0.495837 12.104867 -12.614173 -13.982731 -2.919532 -0.116651 -2.303300 0.000000 0.000000 0.000000 0.722422 4.273650 3.473803 -66.452041 11.098111 15.058869 -1.234151 -64.126504 -0.015326 2.907111 7.555615 0.195009 -0.082366 0.117338 -0.000000 0.000000 0.000000 0.000000 0.000000 0.000000 0.000000 17.375982 -8.909000 4.159900 68.900376 -9.716025 8.972157 2.623650 43.784203 0.019571 3.816404 5.705263 0.193718 0.063531 -0.178625 0.000000 0.000000 0.000000 0.000000 0.000000 0.000000 0.000000 
4.088878 15.336024 2.233207 21.242529 -89.532258 25.279203 3.801060 -2.995365 -2.588372 -0.065154 -3.371178 -3.822025 -6.712178 -3.551571 -0.560862 12.267293 -12.859468 -14.215867 -2.860075 -0.106689 -2.403013 0.000000 0.000000 0.000000 0.703912 4.293215 3.557432 -66.681751 12.123774 15.381584 -1.218522 -63.963301 -0.014894 2.934067 7.428353 0.193185 -0.079667 0.117287 -0.000000 0.000000 0.000000 0.000000 0.000000 0.000000 0.000000 17.449480 -9.117035 4.199563 68.751740 -10.043733 9.438829 2.512744 45.267671 0.019372 3.445270 5.882523 0.180138 0.065020 -0.188076 0.000000 0.000000 0.000000 0.000000 0.000000 0.000000 0.000000 
